<svg xmlns="http://www.w3.org/2000/svg" width="1360" height="323" fill="none" viewBox="0 0 1360 323">
  <path stroke="#000" stroke-dasharray="20 20" stroke-miterlimit="2.366" stroke-width="3" d="M1358.5 68.5c-83.94-86.462-221.33-91.516-301-1.099C989.475 144.61 948.193 197.116 891 207c-89.912 15.538-205-138.5-41-197 82.135-29.298 168 91.338 168 178.542v3.787c0 71.339-57.832 129.171-129.171 129.171h-37.44c-56.104 0-108.415-28.191-139.172-75.113C677.551 193.499 631.244 122.745 596 68.5 564.509 20.031 498.674 7.106 445.56 5.33c-49.018-1.64-89.283 33.19-105.831 79.358l-15.979 44.577c-29.132 81.273 54.843 170.17 124.903 119.717 66.199-47.671 4.855-129.824-75.018-113.234-75.911 15.767-148.44 35.215-195.885 42.676C95.364 191.379 80.367 34.106-2.5 43.5"/>
</svg>
