<svg width="20" height="20" viewBox="0 0 20 20" fill="none" xmlns="http://www.w3.org/2000/svg">
<path d="M18.85 7.61678C18.8457 6.47844 18.453 5.37565 17.7369 4.49076C17.98 3.47907 17.9041 2.41694 17.5197 1.45007C17.4823 1.35819 17.425 1.27575 17.3519 1.20868C17.2788 1.14162 17.1917 1.0916 17.0969 1.06222C16.8255 0.96914 15.7977 0.79461 13.7033 2.15206C12.8026 1.91434 11.8733 1.8021 10.9419 1.81852C10.0091 1.80189 9.07857 1.91414 8.17654 2.15206C6.02788 0.763582 4.91089 0.988532 4.68594 1.05447C4.59067 1.08515 4.50336 1.13653 4.43027 1.20493C4.35718 1.27332 4.30013 1.35703 4.26319 1.45007C3.87782 2.41379 3.79927 3.47297 4.03824 4.483C3.29872 5.36346 2.90449 6.48273 2.92901 7.6323C2.92901 11.9218 5.38406 13.2172 7.63356 13.6749C7.51809 13.9573 7.43861 14.2531 7.39697 14.5553C7.39292 14.5875 7.39292 14.6201 7.39697 14.6523V15.8391C5.34916 16.0097 4.91089 14.8113 4.86823 14.6755C4.8583 14.6439 4.84665 14.6128 4.83333 14.5825C4.43779 13.7755 3.74153 13.1558 2.89411 12.8566C2.72335 12.7995 2.53692 12.8125 2.37581 12.8929C2.2147 12.9733 2.09212 13.1144 2.03503 13.2851C1.97794 13.4559 1.99102 13.6423 2.0714 13.8034C2.15177 13.9645 2.29285 14.0871 2.4636 14.1442C2.93321 14.3139 3.32483 14.6489 3.56508 15.0867C3.83657 15.9671 4.9458 17.3594 7.38922 17.2043V18.3213C7.38922 18.5013 7.46072 18.6739 7.58801 18.8012C7.7153 18.9285 7.88793 19 8.06794 19C8.24795 19 8.42059 18.9285 8.54787 18.8012C8.67516 18.6739 8.74667 18.5013 8.74667 18.3213V14.7027C8.79816 14.3075 8.97015 13.9378 9.23923 13.6439C9.33349 13.5556 9.40046 13.4422 9.4322 13.3171C9.46393 13.1919 9.4591 13.0603 9.41827 12.9378C9.37744 12.8153 9.30233 12.7071 9.20185 12.626C9.10137 12.5449 8.97974 12.4944 8.85139 12.4803C6.48554 12.205 4.2981 11.4254 4.2981 7.60515C4.28237 7.14401 4.36249 6.68463 4.5334 6.25604C4.7043 5.82745 4.96226 5.43898 5.29098 5.11519C5.37938 5.02005 5.44046 4.9028 5.46776 4.77583C5.49507 4.64886 5.48759 4.51687 5.44612 4.3938C5.21763 3.72987 5.20271 3.01107 5.40345 2.33823C6.23625 2.52625 7.0183 2.8928 7.69561 3.41256C7.78264 3.47015 7.88154 3.50739 7.98495 3.52149C8.08836 3.53559 8.19362 3.5262 8.29289 3.494C9.15464 3.23171 10.053 3.10992 10.9535 3.13331C11.8527 3.10986 12.7498 3.23166 13.6102 3.494C13.7095 3.52648 13.8148 3.53602 13.9182 3.52191C14.0217 3.50781 14.1206 3.47042 14.2075 3.41256C14.8599 2.91271 15.6066 2.54992 16.4027 2.34599C16.6004 3.02627 16.5828 3.75107 16.3523 4.42095C16.3143 4.53274 16.3065 4.65256 16.3297 4.76833C16.3528 4.88409 16.4061 4.9917 16.4842 5.08028C17.1262 5.76583 17.4899 6.66598 17.5042 7.60515C17.5042 11.4177 15.2043 12.2089 12.9509 12.4803C12.816 12.4953 12.6887 12.5507 12.5858 12.6391C12.4828 12.7276 12.4089 12.845 12.3737 12.9761C12.3385 13.1072 12.3437 13.2459 12.3885 13.374C12.4334 13.5021 12.5158 13.6138 12.6251 13.6943C12.8656 13.8766 13.1448 14.3885 13.1448 15.2457V18.3174C13.1448 18.4974 13.2163 18.67 13.3436 18.7973C13.4709 18.9246 13.6435 18.9961 13.8235 18.9961C14.0036 18.9961 14.1762 18.9246 14.3035 18.7973C14.4308 18.67 14.5023 18.4974 14.5023 18.3174V15.2457C14.5094 14.7055 14.4105 14.1693 14.2114 13.6671C16.0343 13.2793 18.85 12.0809 18.85 7.61678Z" fill="black"/>
</svg>
