<svg xmlns="http://www.w3.org/2000/svg" width="100" height="935" fill="none" viewBox="0 0 100 935">
  <path stroke="#000" stroke-linecap="round" stroke-width="2" d="M46 1.5v163.272a100 100 0 0 0 14.28 51.497l25.586 42.59c22.322 37.157 13.33 85.137-20.934 111.689l-25.534 19.786C5.254 416.794 7.49 469.052 43.768 492.5l2.889 1.867c36.793 23.779 36.854 77.581.115 101.444l-28.053 18.221c-23.245 15.097-23.397 49.072-.29 64.378l47.623 31.544C83.644 721.606 75.394 749 54.293 749v0C42.534 749 33 758.533 33 770.293V913m0 0v0c6.084 0 10.13 6.292 7.605 11.828l-1.088 2.384c-3.042 6.67-11.975 7.939-16.754 2.379v0C17.164 923.079 21.79 913 30.379 913H33Z"/>
</svg>
