<svg width="20" height="20" viewBox="0 0 20 20" fill="none" xmlns="http://www.w3.org/2000/svg">
<mask id="path-1-inside-1_534_5605" fill="white">
<path d="M18.7131 19C18.6318 19 18.5776 18.9729 18.5234 18.9458L8.87827 13.5272L1.40056 13.6897C1.238 13.6897 1.07544 13.5814 1.02126 13.4188C0.967071 13.2563 1.02126 13.0666 1.12963 12.9582L15.2181 1.09144C15.3264 1.01016 15.489 0.983067 15.6245 1.01016C15.7599 1.06435 15.8683 1.17272 15.8954 1.30818L19.1195 18.5123C19.1466 18.6749 19.0924 18.8374 18.9569 18.9187C18.8756 18.9729 18.7944 19 18.7131 19ZM8.98664 12.7415C9.06792 12.7415 9.1221 12.7686 9.17629 12.7957L18.1441 17.835L15.2181 2.14807L2.53847 12.8499L8.98664 12.7415Z"/>
</mask>
<path d="M18.5234 18.9458L18.0336 19.8177L18.0546 19.8295L18.0762 19.8402L18.5234 18.9458ZM8.87827 13.5272L9.36806 12.6554L9.12978 12.5215L8.85653 12.5274L8.87827 13.5272ZM1.40056 13.6897V14.6897H1.41143L1.4223 14.6895L1.40056 13.6897ZM1.12963 12.9582L0.485404 12.1934L0.45273 12.2209L0.422523 12.2511L1.12963 12.9582ZM15.2181 1.09144L14.6181 0.291439L14.5954 0.308397L14.5738 0.326604L15.2181 1.09144ZM15.6245 1.01016L15.9958 0.0816832L15.9106 0.0475851L15.8206 0.0295792L15.6245 1.01016ZM15.8954 1.30818L16.8784 1.12398L16.876 1.11207L15.8954 1.30818ZM19.1195 18.5123L20.1059 18.3479L20.1042 18.338L20.1024 18.3281L19.1195 18.5123ZM18.9569 18.9187L18.4424 18.0612L18.422 18.0735L18.4022 18.0867L18.9569 18.9187ZM8.98664 12.7415V11.7415H8.97824L8.96983 11.7416L8.98664 12.7415ZM9.17629 12.7957L9.66618 11.9239L9.64511 11.9121L9.6235 11.9012L9.17629 12.7957ZM18.1441 17.835L17.6542 18.7068L19.5195 19.7549L19.1272 17.6516L18.1441 17.835ZM15.2181 2.14807L16.2011 1.96471L15.8861 0.275698L14.5731 1.38388L15.2181 2.14807ZM2.53847 12.8499L1.89348 12.0857L-0.252491 13.8969L2.55528 13.8497L2.53847 12.8499ZM18.7131 18C18.7907 18 18.8636 18.0142 18.9243 18.0344C18.9715 18.0501 19.0056 18.0689 18.9706 18.0514L18.0762 19.8402C18.1382 19.8713 18.377 20 18.7131 20V18ZM19.0132 18.074L9.36806 12.6554L8.38847 14.399L18.0336 19.8177L19.0132 18.074ZM8.85653 12.5274L1.37883 12.69L1.4223 14.6895L8.9 14.527L8.85653 12.5274ZM1.40056 12.6897C1.53801 12.6897 1.65484 12.7338 1.74373 12.796C1.83442 12.8595 1.92275 12.961 1.96994 13.1026L0.0725742 13.735C0.269977 14.3273 0.830465 14.6897 1.40056 14.6897V12.6897ZM1.96994 13.1026C2.01081 13.2252 2.00404 13.3331 1.98463 13.4107C1.96587 13.4858 1.92422 13.5779 1.83674 13.6653L0.422523 12.2511C0.0610532 12.6126 -0.107841 13.1938 0.0725742 13.735L1.96994 13.1026ZM1.77386 13.7231L15.8623 1.85627L14.5738 0.326604L0.485404 12.1934L1.77386 13.7231ZM15.8181 1.89144C15.7274 1.95945 15.6458 1.98342 15.5982 1.9925C15.5489 2.0019 15.4931 2.00369 15.4283 1.99074L15.8206 0.0295792C15.4579 -0.042946 14.9931 0.0101302 14.6181 0.291439L15.8181 1.89144ZM15.2531 1.93864C15.1593 1.90114 14.9701 1.78057 14.9148 1.5043L16.876 1.11207C16.7665 0.564865 16.3605 0.22755 15.9958 0.0816832L15.2531 1.93864ZM14.9125 1.49238L18.1366 18.6965L20.1024 18.3281L16.8783 1.12399L14.9125 1.49238ZM18.1331 18.6767C18.1117 18.5487 18.1355 18.2454 18.4424 18.0612L19.4714 19.7762C20.0492 19.4295 20.1814 18.8011 20.1059 18.3479L18.1331 18.6767ZM18.4022 18.0867C18.4516 18.0538 18.56 18 18.7131 18V20C19.0287 20 19.2997 19.892 19.5116 19.7508L18.4022 18.0867ZM8.98664 13.7415C8.90897 13.7415 8.83608 13.7273 8.7754 13.7071C8.72824 13.6914 8.69407 13.6726 8.72908 13.6901L9.6235 11.9012C9.56147 11.8702 9.32274 11.7415 8.98664 11.7415V13.7415ZM8.6864 13.6675L17.6542 18.7068L18.634 16.9632L9.66618 11.9239L8.6864 13.6675ZM19.1272 17.6516L16.2011 1.96471L14.235 2.33144L17.1611 18.0184L19.1272 17.6516ZM14.5731 1.38388L1.89348 12.0857L3.18346 13.614L15.863 2.91226L14.5731 1.38388ZM2.55528 13.8497L9.00344 13.7413L8.96983 11.7416L2.52167 11.85L2.55528 13.8497Z" fill="black" mask="url(#path-1-inside-1_534_5605)"/>
<path d="M9.08032 18.1516V17.0212L9.60889 17.1525L9.08032 18.1516Z" stroke="black"/>
</svg>
